<svg id="flowArtesLogo" xmlns="http://www.w3.org/2000/svg" viewBox="0 0 382 93"><defs><style>.cls-1{fill:#0054a6;}.cls-2{fill:#43b649;}</style></defs><title>logo</title><path id="Artes" class="cls-1" d="M254.43,25.29c-.42-1-.89-1.45-1.92-1.45H248a1.87,1.87,0,0,0-1.93,1.45l-10.41,28.1c-.23.56-.23,1.31.8,1.31h4.92c1,0,1.41-.28,1.79-1.41l7.08-20.63,7,20.63c.37,1.13.75,1.41,1.78,1.41H264c1,0,1-.75.8-1.31Zm33.21,18.29a10.42,10.42,0,0,0,3.8-16.69c-2-2-4.22-3-9.33-3H270.29c-1.08,0-1.32.52-1.32,1.36v28.1c0,1.08.47,1.36,1.32,1.36h4.64c.85,0,1.36-.28,1.36-1.36V30.45h6.24c2.44,0,4.32,1.55,4.32,4,0,2.2-2.16,3.8-4.46,3.8h-.94c-1.08,0-1.36.51-1.36,1.36v3.75a3.42,3.42,0,0,0,.52,2.39l5.06,7.55A2.5,2.5,0,0,0,288,54.7h5.53c.89,0,1.13-.84.71-1.5Zm62.43-14.49V25.2c0-.85-.28-1.36-1.36-1.36H328.5c-1.08,0-1.36.51-1.36,1.36v5.25h21.57C349.79,30.45,350.07,29.93,350.07,29.09Zm-.56,19h-15V41.94h12.57c1.08,0,1.36-.51,1.36-1.36V36.92c0-.84-.28-1.36-1.36-1.36h-20V53.34c0,.85.28,1.36,1.36,1.36h21c1.08,0,1.36-.51,1.36-1.36V49.49C350.87,48.65,350.59,48.13,349.51,48.13Zm21.57-11.35c-1.87-.75-8.77-1.78-8.77-4.64,0-2.11,2.58-2.72,4.13-2.72a6.21,6.21,0,0,1,4,1.27,3.74,3.74,0,0,1,1,1.4c.24.61.38,1.27,1.27,1.27h4.6c1.08,0,1.36-.19,1.36-1.31,0-6.2-6.52-8.92-12.48-8.92-5.86.24-11.4,3.24-11.4,9.34s4.36,7.83,9.1,9.33c4,1.27,8.16,1.32,8.16,3.94s-2.06,3.19-4.59,3.19c-1.74,0-3.66-.42-4.6-1.55a3.23,3.23,0,0,1-.89-1.92c-.1-1.17-.61-1.31-1.69-1.31H355.7c-1.08,0-1.36.23-1.36,1.31,0,6.57,6.75,9.94,12.62,9.94,7.22,0,12.47-3.18,12.47-9.85C379.43,39.18,374.46,37.82,371.08,36.78Zm-50-12.94H299.32c-1.08,0-1.36.51-1.36,1.36v3.89c0,.84.28,1.36,1.36,1.36h7.22V53.34c0,1.08.52,1.36,1.36,1.36h4.65c.84,0,1.36-.28,1.36-1.36V30.45h7.18c1.07,0,1.36-.52,1.36-1.36V25.2C322.45,24.35,322.16,23.84,321.09,23.84Z"/><path id="Flow" class="cls-2" d="M131.87,23.84H111.7c-1.07,0-1.36.51-1.36,1.36v5.2h21.53c1.08,0,1.36-.51,1.36-1.36V25.2C133.23,24.35,133,23.84,131.87,23.84Zm27.58,24.29H145.94V25.2c0-1.08-.51-1.36-1.36-1.36h-4.64c-.84,0-1.36.28-1.36,1.36V53.34c0,.85.28,1.36,1.36,1.36h19.51c1.08,0,1.36-.51,1.36-1.36V49.49C160.81,48.65,160.53,48.13,159.45,48.13ZM129.9,35.89H110.34V53.34c0,.85.29,1.36,1.36,1.36h4.65c1.08,0,1.36-.19,1.36-1.41v-11H129.9c1.08,0,1.36-.52,1.36-1.36V37.25C131.26,36.41,131,35.89,129.9,35.89Zm47.61-12.76c-5.58,0-12.52,3.19-12.52,10.6V44.8c0,7.42,6.94,10.6,12.52,10.6s12.62-3.18,12.62-10.6V33.73C190.13,26.32,183.09,23.13,177.51,23.13Zm5.25,21c0,3-2.15,4.73-5.25,4.73s-5.21-1.73-5.21-4.73V34.39c0-3,2.16-4.74,5.21-4.74s5.25,1.74,5.25,4.74ZM233,23.84h-5a1.75,1.75,0,0,0-1.88,1.5l-4.64,16-4.55-15.95c-.19-.66-.52-1.5-1.55-1.5h-3.28c-1.08,0-1.41.84-1.6,1.5l-4.5,16-4.64-15.95a1.79,1.79,0,0,0-1.88-1.5H194.3c-.84,0-1,.79-.84,1.36l8.68,28.52a1.3,1.3,0,0,0,1.26,1h4.13a1.52,1.52,0,0,0,1.5-1.08l4.69-15,4.69,15a1.52,1.52,0,0,0,1.5,1.08h3.94a1.32,1.32,0,0,0,1.27-1l8.63-28.52C233.94,24.63,233.8,23.84,233,23.84Z"/><path id="tagline" class="cls-2" d="M342.07,63.11l-2.29,6a37.47,37.47,0,0,0-1.27,4q-.45-1.56-.78-2.61c-.23-.7-1.11-3.18-2.64-7.42h-2.21L332,75.42h1.61l.32-5.17c.09-1.41.18-3.26.26-5.55.29,1.06.56,2,.83,2.82s1.16,3.43,2.68,7.81H339L341.38,69c.54-1.46,1-2.88,1.44-4.25,0,.75.09,2.1.19,4l.36,6.69H345l-.77-12.31Zm-189.1,1v-1h-8.68v1.4h6.45l-7.05,9.95v1h9.39V74H146Zm3,11.31h1.69V63.11H156Zm15.29,0H173V63.11h-1.7Zm-8.17-12.31h-1.7V75.42h7.15V74h-5.45Zm-27.77,0L131,75.42h1.78l1.29-3.83h4.5L140,75.42h1.83l-4.35-12.31Zm-.9,7.16c1-2.8,1.6-4.7,1.86-5.72q.28,1.08,1.94,5.72Zm-19.31-1.44a3.49,3.49,0,0,0,1.54-1.13,2.58,2.58,0,0,0,.56-1.61,2.72,2.72,0,0,0-1.1-2.24A5.61,5.61,0,0,0,112.7,63a14.81,14.81,0,0,0-3,.27V75.39c1,.09,1.85.14,2.57.14a6.85,6.85,0,0,0,4.24-1,3.21,3.21,0,0,0,1.26-2.59,2.91,2.91,0,0,0-.7-2A3.45,3.45,0,0,0,115.15,68.83Zm-3.81-4.43a7.89,7.89,0,0,1,1.48-.11c1.81,0,2.71.66,2.71,2a1.76,1.76,0,0,1-.72,1.46,3.1,3.1,0,0,1-2,.57h-1.5Zm3.75,9.22a4,4,0,0,1-2.36.6,8.92,8.92,0,0,1-1.39-.08V69.56h1.38a4.07,4.07,0,0,1,2.35.6,2.19,2.19,0,0,1,0,3.46ZM370.63,63.11v1.42h3.89V75.42h1.7V64.53h3.91V63.11Zm-20.5,6.59h4.95V68.3h-4.95V64.51h5.24v-1.4h-6.94V75.42h7.23V74h-5.53Zm-223.78-.2a3.57,3.57,0,0,0,1.73-1.2,3.07,3.07,0,0,0,.62-1.92,3,3,0,0,0-1.11-2.47A5.59,5.59,0,0,0,124,63a17.52,17.52,0,0,0-3.22.27V75.42h1.7v-5.3h1.55a2.3,2.3,0,0,1,1.64.54,3.63,3.63,0,0,1,.87,1.84,15,15,0,0,0,.82,2.92h1.75a24.55,24.55,0,0,1-1-3.41A3.24,3.24,0,0,0,126.35,69.5Zm-2.14-.66h-1.7v-4.4a6.85,6.85,0,0,1,1.64-.15,3.41,3.41,0,0,1,2.12.58,2.25,2.25,0,0,1,0,3.35A3.11,3.11,0,0,1,124.21,68.84Zm242.51-.6q0,3.33.18,5a34.61,34.61,0,0,0-2.3-4l-4-6.16h-1.9V75.42h1.59V70.14c0-2.16,0-3.84-.11-5q.93,1.78,2.43,4.13l4,6.17h1.74V63.11h-1.59Zm-96.5,0q0,3.33.18,5a36.15,36.15,0,0,0-2.3-4l-4-6.16h-1.9V75.42h1.59V70.14c0-2.16,0-3.84-.11-5q.92,1.78,2.43,4.13l4,6.17h1.74V63.11h-1.59Zm-40.33-3.71h3.89V75.42h1.7V64.53h3.91V63.11h-9.5Zm26.84,10.89h1.7V63.11h-1.7ZM180.09,63.11l-4.31,12.31h1.77l1.3-3.83h4.49l1.36,3.83h1.82l-4.35-12.31Zm-.9,7.16c1-2.8,1.6-4.7,1.87-5.72.19.72.83,2.63,1.94,5.72Zm111-7.16-2.29,6a37.47,37.47,0,0,0-1.27,4q-.45-1.56-.78-2.61c-.23-.7-1.11-3.18-2.64-7.42H281l-.86,12.31h1.61l.33-5.17c.08-1.41.17-3.26.25-5.55.29,1.06.56,2,.83,2.82s1.16,3.43,2.68,7.81h1.3L289.5,69c.54-1.46,1-2.88,1.44-4.25,0,.75.09,2.1.19,4l.36,6.69h1.66l-.77-12.31Zm11.58-.2a5.58,5.58,0,0,0-4.27,1.8,6.58,6.58,0,0,0-1.68,4.68,6.32,6.32,0,0,0,1.62,4.49,5.47,5.47,0,0,0,4.19,1.74,5.65,5.65,0,0,0,4.3-1.76,6.59,6.59,0,0,0,1.67-4.72A6.35,6.35,0,0,0,306,64.65,5.51,5.51,0,0,0,301.77,62.91Zm2.89,9.93a3.64,3.64,0,0,1-3,1.41,3.57,3.57,0,0,1-2.93-1.42,5.38,5.38,0,0,1-1.14-3.49,5.73,5.73,0,0,1,1.11-3.63,3.84,3.84,0,0,1,6,0,6.23,6.23,0,0,1,0,7.13Zm-59.22-4.43a6,6,0,0,1-2-1,1.64,1.64,0,0,1-.54-1.27,1.61,1.61,0,0,1,.63-1.28,2.59,2.59,0,0,1,1.73-.53,4.89,4.89,0,0,1,2.45.61l.46-1.37a5.68,5.68,0,0,0-2.85-.62,4.5,4.5,0,0,0-3,1,3,3,0,0,0-1.15,2.43,2.85,2.85,0,0,0,.81,2,6.46,6.46,0,0,0,2.57,1.46,4.8,4.8,0,0,1,1.83,1,1.84,1.84,0,0,1,.56,1.4,1.8,1.8,0,0,1-.7,1.49,3,3,0,0,1-1.91.56,5.79,5.79,0,0,1-3-.82l-.44,1.4a5.07,5.07,0,0,0,1.49.6,7.63,7.63,0,0,0,1.8.22,4.89,4.89,0,0,0,3.28-1A3.2,3.2,0,0,0,248.69,72a3.12,3.12,0,0,0-.75-2.14A6,6,0,0,0,245.44,68.41Zm78.35,1.29h5V68.3h-5V64.51H329v-1.4H322.1V75.42h7.23V74h-5.54ZM197.32,68.24q0,3.33.18,5a34.61,34.61,0,0,0-2.3-4l-4-6.16h-1.9V75.42h1.59V70.14c0-2.16,0-3.84-.11-5q.93,1.78,2.43,4.13l4,6.17h1.73V63.11h-1.59Zm28.31,1.26a3.52,3.52,0,0,0,1.73-1.2,3.07,3.07,0,0,0,.63-1.92,3,3,0,0,0-1.12-2.47,5.59,5.59,0,0,0-3.56-.91,17.6,17.6,0,0,0-3.22.27V75.42h1.7v-5.3h1.55a2.3,2.3,0,0,1,1.64.54,3.63,3.63,0,0,1,.87,1.84,15.87,15.87,0,0,0,.82,2.92h1.75a24.55,24.55,0,0,1-1-3.41A3.24,3.24,0,0,0,225.63,69.5Zm-2.14-.66h-1.7v-4.4a6.89,6.89,0,0,1,1.65-.15,3.38,3.38,0,0,1,2.11.58,2.25,2.25,0,0,1,0,3.35A3.11,3.11,0,0,1,223.49,68.84Zm92.41.33c-.65,1.83-1.13,3.34-1.44,4.55-.25-.89-.59-2-1-3.44l-2.33-7.17h-1.84l4.17,12.31h1.9l4.55-12.31h-1.81Zm-105-6.06-4.31,12.31h1.77l1.3-3.83h4.49l1.35,3.83h1.83L213,63.11Zm-.9,7.16c1-2.8,1.6-4.7,1.87-5.72q.29,1.08,1.93,5.72Z"/><path id="icon" class="cls-1" d="M28.65,77.07c-.52-.33-3.32-2.37-3.8-2.75a34.32,34.32,0,0,1-13.06-22A33.88,33.88,0,0,1,14.3,32.72,34.77,34.77,0,0,1,40.54,12.28,35.75,35.75,0,0,1,47,11.77q1.34,0,2.67.15l1.28.14c.39,0,.78.11,1.18.15a6.53,6.53,0,0,0,1.17,0,26.48,26.48,0,0,0,5.94-1,35.7,35.7,0,0,0,5.19-2.06c1-.47,2-1,3-1.47A44.41,44.41,0,0,0,6.65,66.77,43.32,43.32,0,0,0,22.26,84.1c6.24,4,18.78,8,22.11,6.93a23.75,23.75,0,0,1-10.51-6.2A20.57,20.57,0,0,1,28.65,77.07ZM44.54,19.34c-7.71,2.27-12.66,7.37-14.21,15.38a49.5,49.5,0,0,0-.86,6.42,11.54,11.54,0,0,0,.19,2.9c.29-.82.62-1.63.88-2.46a19.25,19.25,0,0,1,5-7.68C40.21,29.55,46,27.8,52,26.5c4.87-1.06,9.85-1.63,14.74-2.64A65.76,65.76,0,0,0,77,21.1c4.78-1.8,8-5.15,8.8-10.49a27,27,0,0,0-.53-8.82c-.23.54-.43.89-.5,1A18.75,18.75,0,0,1,72.47,13.21c-5.13,1.51-10.46,2.32-15.7,3.44C52.68,17.52,48.53,18.16,44.54,19.34ZM87,41.87a15.63,15.63,0,0,0-5.28,6.88c-2.51,6.81-3.79,13.39-8.15,19.41-3.85,5.34-9.3,9.31-16,10.11C42.67,80.05,31.62,66.11,32,52c-7.37,15.64,3.26,36.39,20.72,36.41a34.78,34.78,0,0,0,15.33-3.75A40.35,40.35,0,0,0,84.12,70.43c5.7-9,7.74-20.67,6.14-31.22C89.12,40.16,88,41,87,41.87Zm6.62-24.59c-.18-.87-.41-1.74-.6-2.51a74.12,74.12,0,0,1-4.39,6.6c-4.21,5.12-10.12,7.4-16.29,9-5.19,1.33-10.5,2.19-15.7,3.49a88.8,88.8,0,0,0-11.67,3.56l-.12.05c-6.07,2.18-11,12.28-7.19,21.1a7.64,7.64,0,0,0,1,1.46c.44-2.75,2.16-5.47,4-8.15C44.75,48.8,48,47,51.41,45.65a50.85,50.85,0,0,1,11.17-3c5-.76,9.88-1.74,14.8-2.68,7-2.31,14.46-6.34,16.29-13.22.07-.28.13-.57.18-.85s.09-.44.13-.66A21.79,21.79,0,0,0,93.59,17.28Z"/></svg>